# xmcd CD database file
#
# Track frame offsets:
#	150
#	11357
#	23976
#	35867
#	50464
#	64009
#	78015
#	92146
#	106486
#	119375
#	133223
#	146492
#	161194
#	173534
#	186955
#	200098
#	213922
#	227550
#	241074
#	253949
#	267587
#
# Disc length: 3749 seconds
#
# Revision: 0
# Processed by: cddbd v1.5.2PL0 Copyright (c) Steve Scherf et al.
# Submitted via: CDex 1.70beta2
#
DISCID=2d0ea315
DTITLE=Bix Beiderbecke - Giants of Jazz (1)
DYEAR=1900
DGENRE=Jazz
TTITLE0=Copenhagen: Wolverine Orchestra
TTITLE1=Big Boy: Wolverine Orchestra
TTITLE2=My Pretty Girl: Jean Goldkette and His Orchestra
TTITLE3=Clarinet Marmalade: Frankie Trumbauer and His Orchestra 
TTITLE4=Singin' the Blues: Frankie Trumbauer and His Orchestra
TTITLE5=Ostrich Walk: Frankie Trumbauer and His Orchestra
TTITLE6=Riverboat Shuffle: Frankie Trumbauer and His Orchestra 
TTITLE7=I'm Coming, Virginia: Frankie Trumbauer and His Orchestra
TTITLE8=Way Down Yonder in New Orleans: Frankie Trumbauer and His Orchestra 
TTITLE9=For No Reason at All in C: Tram, Bix and Lang
TTITLE10=Three Blind Mice: Frankie Trumbauer and His Orchestra 
TTITLE11=Blue River: Frankie Trumbauer and His Orchestra
TTITLE12=In a Mist: Bix Beiderbecke 
TTITLE13=Clementine (From New Orleans): Jean Goldkette and His Orchestra 
TTITLE14=Wringin' and Twistin': Tram, Bix and Lang
TTITLE15=Humpty Dumpty: Frankie Trumbauer and His Orchestra 
TTITLE16=Krazy Kat: Frankie Trumbauer and His Orchestra 
TTITLE17=There Ain't No Land Like Dixieland to Me: Broadway Bell‑Hops
TTITLE18=At the Jazz Band Ball: Bix Beiderbecke and His Gang
TTITLE19=Royal Garden Blues: Bix Beiderbecke and His Gang
TTITLE20=Jazz Me Blues: Bix Beiderbecke and His Gang
EXTD=
EXTT0=
EXTT1=
EXTT2=
EXTT3=
EXTT4=
EXTT5=
EXTT6=
EXTT7=
EXTT8=
EXTT9=
EXTT10=
EXTT11=
EXTT12=
EXTT13=
EXTT14=
EXTT15=
EXTT16=
EXTT17=
EXTT18=
EXTT19=
EXTT20=
PLAYORDER=
